<?xml version="1.0" encoding="utf-8"?>
<!-- Generator: Adobe Illustrator 27.9.0, SVG Export Plug-In . SVG Version: 6.00 Build 0)  -->
<svg version="1.1" id="Layer_1" xmlns="http://www.w3.org/2000/svg" xmlns:xlink="http://www.w3.org/1999/xlink" x="0px" y="0px"
	 viewBox="0 0 24 24" style="enable-background:new 0 0 24 24;" xml:space="preserve">
<style type="text/css">
	.st0{fill-rule:evenodd;clip-rule:evenodd;fill:#3C3C3C;}
</style>
<path class="st0" d="M6.7,1.9C7.3,1.3,8,1,8.8,1h6.3c0.8,0,1.6,0.3,2.1,0.9l4.8,4.8C22.7,7.3,23,8,23,8.8v6.3c0,0.8-0.3,1.6-0.9,2.1
	l-4.8,4.8C16.7,22.7,16,23,15.2,23H8.8c-0.8,0-1.6-0.3-2.1-0.9l-4.8-4.8l0.7-0.7l-0.7,0.7C1.3,16.7,1,16,1,15.2V8.8
	C1,8,1.3,7.3,1.9,6.7L6.7,1.9z M8.8,3C8.6,3,8.3,3.1,8.1,3.3L7.4,2.6l0.7,0.7L3.3,8.1C3.1,8.3,3,8.6,3,8.8v6.3
	c0,0.3,0.1,0.5,0.3,0.7l-0.7,0.7l0.7-0.7l4.8,4.8C8.3,20.9,8.6,21,8.8,21h6.3c0.3,0,0.5-0.1,0.7-0.3l4.8-4.8
	c0.2-0.2,0.3-0.4,0.3-0.7V8.8c0-0.3-0.1-0.5-0.3-0.7l-4.8-4.8C15.7,3.1,15.4,3,15.2,3L8.8,3z M12,7c0.6,0,1,0.4,1,1v6
	c0,0.6-0.4,1-1,1s-1-0.4-1-1V8C11,7.4,11.4,7,12,7z M12,16c0.6,0,1,0.4,1,1v0c0,0.6-0.4,1-1,1s-1-0.4-1-1v0C11,16.4,11.4,16,12,16z"
	/>
</svg>
