<?xml version="1.0" encoding="utf-8"?>
<!-- Generator: Adobe Illustrator 26.4.1, SVG Export Plug-In . SVG Version: 6.00 Build 0)  -->
<svg version="1.1" id="Layer_1" xmlns="http://www.w3.org/2000/svg" xmlns:xlink="http://www.w3.org/1999/xlink" x="0px" y="0px"
	 viewBox="0 0 512 512" style="enable-background:new 0 0 512 512;" xml:space="preserve">
<style type="text/css">
	.st0{fill:#3C3C3C;stroke:#3C3C3C;stroke-width:15;stroke-miterlimit:10;}
</style>
<g id="Layer_2_00000108991560017293301870000010802206916440909211_">
	<path class="st0" d="M256,285.1c-45.8,0.1-85.2-32.2-94.2-77.1c-1.3-8.7,4.7-16.9,13.4-18.2c0.9-0.1,1.7-0.2,2.6-0.2
		c7.9-0.1,14.7,5.5,16,13.3c7.2,34.6,41.2,56.8,75.8,49.5c24.9-5.2,44.3-24.6,49.5-49.5c1.3-7.8,8.1-13.4,16-13.3
		c8.8-0.1,16.1,7,16.2,15.8c0,0.9-0.1,1.7-0.2,2.6C342,253.2,302.1,285.6,256,285.1z"/>
	<path class="st0" d="M398.4,496H113.6c-26.5,0-48-21.4-48.1-47.9c0-0.8,0-1.6,0.1-2.5l13-275.8c1.1-25.7,22.3-45.9,48-45.9h258.9
		c25.7,0,46.9,20.2,48,45.9l13,275.8c1.3,26.5-19.1,49-45.5,50.3C400,496,399.2,496,398.4,496z M126.6,156c-8.8,0-16,7.2-16,16
		l-13,275.2c-0.4,8.8,6.4,16.3,15.2,16.8c0.3,0,0.5,0,0.8,0h284.8c8.8,0,16-7.1,16-16c0-0.3,0-0.5,0-0.8l-13-275.8
		c0-8.8-7.2-16-16-16L126.6,156z"/>
	<path class="st0" d="M352,140h-32v-28c0-35.3-28.7-64-64-64s-64,28.7-64,64v28h-32v-28c0-53,43-96,96-96s96,43,96,96V140z"/>
</g>
</svg>
