<?xml version="1.0" encoding="utf-8"?>
<!-- Generator: Adobe Illustrator 27.9.0, SVG Export Plug-In . SVG Version: 6.00 Build 0)  -->
<svg version="1.1" id="Layer_1" xmlns="http://www.w3.org/2000/svg" xmlns:xlink="http://www.w3.org/1999/xlink" x="0px" y="0px"
	 viewBox="0 0 512 512" style="enable-background:new 0 0 512 512;" xml:space="preserve">
<style type="text/css">
	.st0{fill-rule:evenodd;clip-rule:evenodd;fill:#3C3C3C;}
</style>
<path class="st0" d="M386.6,467.5c53.1-19.2,88.4-69.7,88.1-126.1c-0.1-28.6-9.4-56.5-26.7-79.4c0.7-1.9,1.2-3.9,1.3-6L448,102
	c-0.7-33.4-28.3-59.9-61.7-59.3h-282c-33.4-0.6-61,25.9-61.7,59.3v265.4c0.7,33.4,28.3,59.9,61.7,59.3h130.3c1.2,0.1,2.4,0.1,3.6,0
	C274.1,470.3,333.5,486.6,386.6,467.5z M362.7,149.3c0-11.8-9.6-21.3-21.3-21.3h-192c-11.8,0-21.3,9.6-21.3,21.3
	c0,11.8,9.6,21.3,21.3,21.3h192C353.1,170.7,362.7,161.1,362.7,149.3z M399.1,304.9c4,4,6.3,9.5,6.3,15.1s-2.3,11.1-6.3,15.1l-64,64
	c-4,4-9.5,6.2-15.1,6.2h-3.4c-6.7-1.1-12.5-5.4-15.6-11.5l-21.3-42.7c-4.1-6.9-4.1-15.4,0.1-22.2c4.2-6.8,11.9-10.7,19.8-10
	c8,0.6,14.9,5.7,18,13.1l8.1,16.2l42.7-42.7c3.9-4.3,9.4-6.7,15.2-6.9S395,300.8,399.1,304.9L399.1,304.9z M341.3,208
	c22.4,0.1,44.5,6,64,17.1V102.2c-0.3-4.8-2.4-9.2-6-12.4c-3.6-3.2-8.2-4.8-13-4.5h-282c-9.8-0.6-18.3,6.8-19,16.6v265.4
	c0.7,9.8,9.2,17.2,19,16.6H215c-13.7-40.7-7-85.5,18-120.4C258.1,228.7,298.4,208,341.3,208L341.3,208z M341.3,250.7
	c50.1,0,90.7,40.6,90.7,90.7c-0.1,50-40.6,90.5-90.7,90.7c-50.1,0-90.7-40.6-90.7-90.7C250.7,291.3,291.3,250.7,341.3,250.7
	L341.3,250.7z"/>
</svg>
