<?xml version="1.0" encoding="utf-8"?>
<!-- Generator: Adobe Illustrator 27.9.0, SVG Export Plug-In . SVG Version: 6.00 Build 0)  -->
<svg version="1.1" id="Capa_1" xmlns="http://www.w3.org/2000/svg" xmlns:xlink="http://www.w3.org/1999/xlink" x="0px" y="0px"
	 viewBox="0 0 474.8 474.8" style="enable-background:new 0 0 474.8 474.8;" xml:space="preserve">
<style type="text/css">
	.st0{fill:#3C3C3C;}
</style>
<g>
	<g>
		<path class="st0" d="M372.3,262.8c-1-0.5-1.9-0.7-2.9-0.7c-2.1,0-4,0.8-5.6,2.4L348.3,280c-1.5,1.5-2.2,3.2-2.2,5.3v61.6
			c0,10.7-3.8,19.8-11.4,27.4c-7.6,7.6-16.7,11.4-27.4,11.4H105.6c-10.7,0-19.8-3.8-27.4-11.4c-7.6-7.6-11.4-16.7-11.4-27.4V145.2
			c0-10.7,3.8-19.8,11.4-27.4c7.6-7.6,16.7-11.4,27.4-11.4h201.7c3.6,0,7.2,0.5,10.9,1.5c1,0.3,1.7,0.5,2.2,0.5c2.1,0,4-0.8,5.6-2.4
			L337.9,94c1.9-1.9,2.7-4.3,2.2-7c-0.5-2.6-1.9-4.4-4.4-5.6c-8.7-4-18.2-6.1-28.4-6.1H105.6c-19.2,0-35.7,6.8-49.3,20.5
			c-13.7,13.7-20.5,30.1-20.5,49.3v201.7c0,19.2,6.8,35.7,20.5,49.3c13.7,13.7,30.1,20.5,49.3,20.5h201.7c19.2,0,35.7-6.8,49.3-20.5
			c13.7-13.7,20.5-30.1,20.5-49.3v-77.1C377.2,266.4,375.6,264.1,372.3,262.8z"/>
		<path class="st0" d="M433.2,123.6l-26.7-26.7c-3.9-3.9-8.5-5.8-13.8-5.8c-5.3,0-9.9,1.9-13.8,5.8L222,253.8L158.2,190
			c-3.9-3.9-8.5-5.8-13.8-5.8c-5.3,0-9.9,1.9-13.8,5.8l-26.7,26.7c-3.9,3.9-5.8,8.5-5.8,13.8c0,5.3,1.9,9.9,5.8,13.8l104.3,104.3
			c3.9,3.9,8.5,5.8,13.8,5.8s9.9-1.9,13.8-5.8l197.4-197.4c3.9-3.9,5.8-8.5,5.8-13.8C439,132.1,437.1,127.5,433.2,123.6z"/>
	</g>
</g>
</svg>
