<?xml version="1.0" encoding="utf-8"?>
<!-- Generator: Adobe Illustrator 27.9.0, SVG Export Plug-In . SVG Version: 6.00 Build 0)  -->
<svg version="1.1" id="Layer_2_00000096749679137011167480000007826140542227477181_"
	 xmlns="http://www.w3.org/2000/svg" xmlns:xlink="http://www.w3.org/1999/xlink" x="0px" y="0px" viewBox="0 0 512 512"
	 style="enable-background:new 0 0 512 512;" xml:space="preserve">
<style type="text/css">
	.st0{fill:#3C3C3C;}
</style>
<path class="st0" d="M256,21.3C126.4,21.3,21.3,126.4,21.3,256S126.4,490.7,256,490.7S490.7,385.6,490.7,256
	C490.5,126.5,385.5,21.5,256,21.3z M256,448c-106,0-192-86-192-192S150,64,256,64s192,86,192,192C447.9,362,362,447.9,256,448z"/>
<path class="st0" d="M277.3,247.2V128c0-11.8-9.6-21.3-21.3-21.3c-11.8,0-21.3,9.6-21.3,21.3v128c0,5.7,2.2,11.1,6.3,15.1l64,64
	c8.5,8.2,22,8,30.2-0.5c8-8.3,8-21.4,0-29.6L277.3,247.2z"/>
</svg>
