<?xml version="1.0" encoding="utf-8"?>
<!-- Generator: Adobe Illustrator 27.9.0, SVG Export Plug-In . SVG Version: 6.00 Build 0)  -->
<svg version="1.1" id="Capa_1" xmlns="http://www.w3.org/2000/svg" xmlns:xlink="http://www.w3.org/1999/xlink" x="0px" y="0px"
	 viewBox="0 0 512 512" style="enable-background:new 0 0 512 512;" xml:space="preserve">
<style type="text/css">
	.st0{fill:#3C3C3C;stroke:#3C3C3C;stroke-width:10;stroke-miterlimit:10;}
</style>
<path class="st0" d="M482.6,256v95.3c0,33.1-12.9,64.2-36.3,87.6c-3.7,2.6-34.5,43.7-95,43.7H160.7c-60.5,0-91.3-41-95-43.7
	c-23.4-23.4-36.3-54.5-36.3-87.6V160.7c0-33.1,12.9-64.2,36.3-87.6c3.7-2.6,34.5-43.7,95-43.7H256c9.8,0,17.7,7.9,17.7,17.7
	s-7.9,17.7-17.7,17.7h-95.3c-44.3,0-66.2,30.6-70,33.3c-16.7,16.7-25.9,38.9-25.9,62.6v190.5c0,23.6,9.2,45.9,25.9,62.6
	c3.9,2.8,25.4,33.3,70,33.3h190.5c44.3,0,66.2-30.6,70-33.3c16.7-16.7,25.9-38.9,25.9-62.6V256c0-9.8,7.9-17.7,17.7-17.7
	S482.6,246.2,482.6,256L482.6,256z M139,243.5L335.6,46.9c23.3-23.3,61.1-23.3,84.5,0l45,45c23.3,23.3,23.3,61.1,0,84.5L267.8,373.7
	c-3.3,3.3-7.8,5.2-12.5,5.2l-103.7,0.3c0,0,0,0-0.1,0c-9.8,0-17.7-7.9-17.7-17.7V256C133.9,251.3,135.7,246.8,139,243.5L139,243.5z
	 M333.2,99.4l79.4,79.4l27.4-27.4c9.5-9.5,9.5-24.9,0-34.4l-45-45c-9.5-9.5-24.9-9.5-34.4,0L333.2,99.4z M169.3,343.7l78.7-0.2
	l139.7-139.7l-79.4-79.4l-139,139V343.7z"/>
</svg>
