<?xml version="1.0" encoding="utf-8"?>
<!-- Generator: Adobe Illustrator 26.4.1, SVG Export Plug-In . SVG Version: 6.00 Build 0)  -->
<svg version="1.1" id="Layer_1" xmlns="http://www.w3.org/2000/svg" xmlns:xlink="http://www.w3.org/1999/xlink" x="0px" y="0px"
	 viewBox="0 0 512 512" style="enable-background:new 0 0 512 512;" xml:space="preserve">
<style type="text/css">
	.st0{fill:#3C3C3C;}
	.st1{fill:#0C71E8;}
</style>
<g id="_x38_7_Compress">
	<g>
		<path class="st0" d="M256,0.3C115.1,0.3,0.3,115,0.3,256S115.1,511.7,256,511.7c141,0,255.7-114.7,255.7-255.7S397,0.3,256,0.3z
			 M256,472.3c-119.3,0-216.3-97.1-216.3-216.3S136.7,39.7,256,39.7S472.3,136.7,472.3,256S375.3,472.3,256,472.3z"/>
		<path class="st1" d="M369.2,169.3l-64.2,127c-1.9,3.6-5.8,7.2-8.7,8.7l-127,64.2c-7.6,3.8-16.8,2.4-22.8-3.6
			c-6-6-7.5-15.1-3.6-22.8l64.2-127c1.5-2.9,5.1-6.9,8.7-8.7l127-64.2c7.6-3.8,16.8-2.4,22.8,3.6C371.5,152.5,373,161.7,369.2,169.3
			L369.2,169.3z"/>
	</g>
</g>
</svg>
