<?xml version="1.0" encoding="utf-8"?>
<!-- Generator: Adobe Illustrator 27.9.0, SVG Export Plug-In . SVG Version: 6.00 Build 0)  -->
<svg version="1.1" id="Expand" xmlns="http://www.w3.org/2000/svg" xmlns:xlink="http://www.w3.org/1999/xlink" x="0px" y="0px"
	 viewBox="0 0 512 512" style="enable-background:new 0 0 512 512;" xml:space="preserve">
<style type="text/css">
	.st0{fill:#FFFFFF;}
</style>
<path class="st0" d="M433.5,144.7v-17.8c0-44.5-36.1-80.6-80.7-80.7H94.6c-44.5,0-80.6,36.1-80.7,80.7v161.4
	c0,38.3,27,71.4,64.5,79.1v17.8c0,44.5,36.1,80.6,80.7,80.7h258.2c44.5,0,80.6-36.1,80.7-80.7V223.7
	C498,185.4,471,152.4,433.5,144.7z M46.2,288.3V126.9c0-26.7,21.7-48.4,48.4-48.4h258.2c26.7,0,48.4,21.7,48.4,48.4v161.4
	c0,26.7-21.7,48.4-48.4,48.4H94.6C67.9,336.7,46.3,315,46.2,288.3z M465.8,385.1c0,26.7-21.7,48.4-48.4,48.4H159.2
	c-26.7,0-48.4-21.7-48.4-48.4V369h242.1c44.5,0,80.6-36.1,80.7-80.7V178.1c19.3,6.9,32.3,25.1,32.3,45.6V385.1z"/>
<path class="st0" d="M304.4,223.7H143c-8.9,0-16.1,7.2-16.1,16.1c0,4.3,1.7,8.4,4.7,11.4l32.3,32.3c6.4,6.2,16.6,6,22.8-0.4
	c6-6.3,6-16.2,0-22.4L182,256h122.4c8.9,0,16.1-7.2,16.1-16.1S313.3,223.7,304.4,223.7z"/>
<path class="st0" d="M143,191.5h161.4c8.9,0,16.1-7.2,16.1-16.1c0-4.3-1.7-8.4-4.7-11.4l-32.3-32.3c-6.4-6.2-16.6-6-22.8,0.4
	c-6,6.3-6,16.2,0,22.4l4.7,4.7H143c-8.9,0-16.1,7.2-16.1,16.1S134.1,191.5,143,191.5z"/>
</svg>
