<?xml version="1.0" encoding="utf-8"?>
<!-- Generator: Adobe Illustrator 27.9.0, SVG Export Plug-In . SVG Version: 6.00 Build 0)  -->
<svg version="1.1" id="Layer_1" xmlns="http://www.w3.org/2000/svg" xmlns:xlink="http://www.w3.org/1999/xlink" x="0px" y="0px"
	 viewBox="0 0 512 512" style="enable-background:new 0 0 512 512;" xml:space="preserve">
<style type="text/css">
	.st0{fill:#3C3C3C;stroke:#3C3C3C;stroke-width:10;stroke-miterlimit:10;}
</style>
<path class="st0" d="M471.9,207.4c-4.2-3.9-5.9-10-4.1-15.6l6-22.4c6.6-25-8.2-50.6-33.2-57.4l-22.4-6.1
	c-5.7-1.3-10.1-5.8-11.3-11.3l-6-22.4c-6.7-25-32.4-39.8-57.4-33.2l-22.4,6c-5.6,1.6-11.5,0-15.6-4.1l-16.4-16.4
	c-18.4-18.3-48-18.3-66.3,0L206.4,41c-3.9,4.2-10,5.9-15.6,4.1l-22.3-6c-25-6.6-50.6,8.2-57.4,33.2l-6.1,22.4
	c-1.3,5.6-5.8,10-11.3,11.3l-22.4,6c-25,6.7-39.8,32.4-33.2,57.4l6,22.4c1.6,5.6,0,11.5-4.1,15.6l-16.4,16.4
	c-18.3,18.4-18.3,48,0,66.3l16.4,16.4c4.2,3.9,5.9,10,4.1,15.6l-6,22.3c-6.6,25,8.2,50.6,33.2,57.4l22.4,6
	c5.7,1.3,10.1,5.8,11.3,11.3l6,22.4c6.7,25,32.4,39.8,57.4,33.2l22.4-6c5.6-1.6,11.5,0,15.6,4.1l16.4,16.4c18.4,18.3,48,18.3,66.3,0
	l16.4-16.4c3.9-4.2,10-5.9,15.6-4.1l22.4,6c25,6.6,50.6-8.2,57.4-33.2l6-22.4c1.3-5.7,5.8-10.1,11.3-11.3l22.4-6
	c25-6.7,39.8-32.4,33.2-57.4l-6-22.4c-1.6-5.6-0.1-11.5,4.1-15.6l16.4-16.4c18.3-18.4,18.3-48,0-66.3L471.9,207.4z M466.5,268.3
	l-16.4,16.4c-11.9,11.8-16.5,29.1-12.1,45.3l6,22.4c2.3,8.6-2.8,17.4-11.3,19.7l-22.4,6c-16.2,4.2-28.9,16.9-33.2,33.2l-6,22.4
	c-2.3,8.6-11.1,13.6-19.7,11.3l-22.4-6c-16.1-4.4-33.4,0.2-45.3,12.1l-16.4,16.4c-6.3,6.2-16.4,6.2-22.8,0L228.2,451
	c-8.6-8.8-20.6-13.7-33-13.7c-4.1,0-8.4,0.6-12.3,1.6l-22.4,6c-8.6,2.3-17.4-2.8-19.7-11.3l-6-22.4c-4.2-16.2-16.9-28.9-33.2-33.2
	l-22.4-6c-8.6-2.3-13.6-11.1-11.3-19.7l6-22.4c4.4-16.1-0.2-33.4-12.1-45.3l-16.4-16.4c-6.2-6.3-6.2-16.4,0-22.8l16.4-16.3
	c11.9-11.8,16.5-29.1,12.1-45.3l-6-22.4c-2.3-8.6,2.8-17.4,11.3-19.7l22.4-6c16.2-4.2,28.9-16.9,33.2-33.2l6-22.4
	c2.3-8.6,11.1-13.6,19.7-11.3l22.4,6c16.1,4.4,33.4-0.2,45.3-12.1l16.4-16.4c6.3-6.2,16.4-6.2,22.8,0l16.3,16.4
	c11.8,11.9,29.1,16.5,45.3,12.1l22.4-6c8.6-2.3,17.4,2.8,19.7,11.3l6,22.4c4.2,16.2,16.9,28.9,33.2,33.2l22.4,6
	c8.6,2.3,13.6,11.1,11.3,19.7l-6,22.4c-4.4,16.1,0.2,33.4,12.1,45.3l16.4,16.4C472.8,251.8,472.8,262,466.5,268.3L466.5,268.3z
	 M358.8,175.8L174.9,359.8c-6.1,6-15.9,5.8-21.7-0.3c-5.8-6-5.8-15.5,0-21.4l183.9-183.9c6.1-6,15.9-5.8,21.7,0.3
	C364.6,160.4,364.6,169.9,358.8,175.8z M238.8,185c0-30.3-24.6-54.9-54.9-54.9s-54.8,24.5-54.8,54.9s24.6,54.9,54.9,54.9l0,0
	C214.3,239.7,238.8,215.2,238.8,185L238.8,185z M159.9,185c0-13.3,10.8-24.1,24.1-24.1s24.1,10.8,24.1,24.1s-10.8,24.1-24.1,24.1
	l0,0C170.7,209,159.9,198.2,159.9,185L159.9,185z M328,274.1c-30.3,0-54.9,24.6-54.9,54.9s24.6,54.9,54.9,54.9s54.9-24.6,54.9-54.9
	l0,0C382.8,298.6,358.2,274.1,328,274.1L328,274.1z M328,353c-13.3,0-24.1-10.8-24.1-24.1c0-13.3,10.8-24.1,24.1-24.1
	c13.3,0,24.1,10.8,24.1,24.1l0,0C352.1,342.3,341.3,353,328,353L328,353z"/>
</svg>
