<?xml version="1.0" encoding="utf-8"?>
<!-- Generator: Adobe Illustrator 26.4.1, SVG Export Plug-In . SVG Version: 6.00 Build 0)  -->
<svg version="1.1" id="Layer_1_copy_2" xmlns="http://www.w3.org/2000/svg" xmlns:xlink="http://www.w3.org/1999/xlink" x="0px"
	 y="0px" viewBox="0 0 512 512" style="enable-background:new 0 0 512 512;" xml:space="preserve">
<style type="text/css">
	.st0{fill:#3C3C3C;}
	.st1{fill:#0C71E8;}
</style>
<g>
	<path class="st0" d="M256,512C114.6,512,0,397.4,0,256S114.7,0,256.1,0c54.1,0,106.7,17.1,150.5,48.9c7.1,5.2,8.7,15.2,3.5,22.4
		s-15.2,8.7-22.4,3.5c-100-72.5-239.8-50.3-312.4,49.7S25,364.3,125,436.9s239.8,50.3,312.4-49.7c50.5-69.6,56.6-161.9,15.8-237.6
		c-4-7.9-0.8-17.5,7.1-21.5c7.6-3.8,16.8-1,21,6.3c67.1,124.5,20.6,279.8-103.9,346.9C340.1,501.4,298.4,512,256,512L256,512z"/>
	<path class="st0" d="M438.6,116.3c-4.7,0-9.1-2.1-12.2-5.6l-2.9-3.3c-6-6.5-5.5-16.6,1-22.6c6.5-6,16.6-5.5,22.6,1
		c0.1,0.1,0.3,0.3,0.4,0.4l3.3,3.8c5.7,6.7,4.9,16.8-1.8,22.6C446.1,114.9,442.4,116.3,438.6,116.3L438.6,116.3z"/>
	<path class="st1" d="M279.4,240h-10.7v-73.4h10.7c20.3,0,36.7,16.4,36.7,36.7c0,8.8,7.2,16,16,16s16-7.2,16-16
		c0-37.9-30.8-68.7-68.7-68.7h-10.7v-34.4c0-8.8-7.2-16-16-16s-16,7.2-16,16v34.4H226c-37.9-0.5-69.1,29.9-69.5,67.8
		c-0.5,37.9,29.9,69.1,67.8,69.5c0.6,0,1.1,0,1.7,0h10.7v73.4H226c-20.3,0-36.7-16.4-36.7-36.7c0-8.8-7.2-16-16-16
		c-8.8,0-16,7.2-16,16l0,0c0,37.9,30.8,68.7,68.7,68.7h10.7v34.4c0,8.8,7.2,16,16,16s16-7.2,16-16v-34.4h10.7
		c37.9,0.5,69.1-29.9,69.5-67.8S319,240.5,281.1,240C280.5,240,280,240,279.4,240L279.4,240z M226,240c-20.3,0.3-37-15.8-37.3-36.1
		c-0.3-20.3,15.8-37,36.1-37.3c0.4,0,0.8,0,1.3,0h10.7V240H226z M279.4,345.4h-10.7V272h10.7c20.3-0.3,37,15.8,37.3,36.1
		c0.3,20.3-15.8,37-36.1,37.3C280.2,345.4,279.8,345.4,279.4,345.4z"/>
</g>
</svg>
