<?xml version="1.0" encoding="utf-8"?>
<!-- Generator: Adobe Illustrator 26.4.1, SVG Export Plug-In . SVG Version: 6.00 Build 0)  -->
<svg version="1.1" id="Layer_1" xmlns="http://www.w3.org/2000/svg" xmlns:xlink="http://www.w3.org/1999/xlink" x="0px" y="0px"
	 viewBox="0 0 32 32" style="enable-background:new 0 0 32 32;" xml:space="preserve">
<style type="text/css">
	.st0{display:none;}
	.st1{fill:#3C3C3C;}
	.st2{fill:#0C71E8;}
</style>
<g id="Layer_1_00000150099107004095758270000010372907336938373812_" class="st0">
</g>
<g id="Layer_2_00000026161343640087209370000018093519551748096673_">
</g>
<g id="Layer_3">
</g>
<g id="Layer_4">
	<path class="st1" d="M18.2,28.9c-0.7,0.1-1.5,0.2-2.2,0.2c-1.2,0-2.4-0.2-3.6-0.5c-0.3-1.2-0.2-2.3,0.2-3.2
		c0.4-0.8,0.9-1.3,1.5-1.9c0.8-0.7,1.6-1.5,1.7-2.8c0.1-1.7-0.6-3.4-0.6-3.4L15.1,17c-0.4-0.9-1.6-2.9-3.6-3.2
		c-1.6-0.2-2.7,0.7-3.7,1.5C7,16,6.3,16.6,5.5,16.5c-1-0.1-1.9-1.2-2.5-2.2C3.8,7.9,9.3,2.9,16,2.9c0.2,0,0.5,0,0.7,0
		c-0.8,2.2-0.8,4.3,0,5.8c0.6,1.1,1.4,1.8,2.3,2c0.2,0,0.4,0.1,0.6,0.1c0.9,0,1.6-0.5,2.3-0.9c0.7-0.5,1.2-0.8,2-0.8
		c0.4,0,0.5,0.1,0.8,0.3c0.4,0.2,0.9,0.6,1.8,0.7c0.4,0.1,0.8,0.1,1.3,0.1c0.7,1.4,1.1,2.9,1.3,4.6c0,0.5,0.5,0.9,1,0.8
		c0.5,0,0.9-0.5,0.8-1C30.2,7.1,23.7,1.1,16,1.1C7.8,1.1,1.1,7.8,1.1,16S7.8,30.9,16,30.9c0.9,0,1.7-0.1,2.5-0.2
		c0.5-0.1,0.8-0.6,0.7-1S18.7,28.8,18.2,28.9z M26.6,8.3c-0.4-0.1-0.6-0.3-0.9-0.4c-0.4-0.2-0.8-0.5-1.6-0.6
		c-1.4-0.1-2.4,0.6-3.2,1.1c-0.7,0.4-1,0.7-1.4,0.6c-0.4-0.1-0.8-0.5-1.1-1.1c-0.6-1.1-0.5-2.9,0.2-4.8C21.8,3.8,24.7,5.7,26.6,8.3z
		 M3,17.1c0.8,0.7,1.6,1.1,2.5,1.2c1.5,0.1,2.6-0.8,3.5-1.6c0.9-0.8,1.5-1.2,2.3-1.1c1.2,0.2,2,1.7,2.2,2.2l0.1,0.1
		c0,0,0.6,1.3,0.5,2.6c0,0.6-0.4,1-1.1,1.6c-0.6,0.6-1.4,1.3-2,2.5c-0.4,1-0.6,2-0.4,3.2C6.3,25.9,3.4,21.9,3,17.1z"/>
	<path class="st2" d="M24.6,16.2c-3.5,0-6.3,2.8-6.3,6.3c0,3.8,4.1,7.2,5.4,8.1c0.3,0.2,0.6,0.3,0.9,0.3c0.3,0,0.6-0.1,0.9-0.3
		c1.3-1,5.4-4.3,5.4-8.1C30.9,19,28.1,16.2,24.6,16.2z M24.6,29c-2.2-1.7-4.5-4.3-4.5-6.5c0-2.5,2-4.5,4.5-4.5s4.5,2,4.5,4.5
		C29.1,24.7,26.8,27.3,24.6,29z"/>
	<path class="st2" d="M24.6,21c-0.8,0-1.4,0.6-1.4,1.4s0.6,1.4,1.4,1.4s1.4-0.6,1.4-1.4C26,21.6,25.4,21,24.6,21z"/>
</g>
<g id="Layer_5">
</g>
<g id="Layer_6">
</g>
<g id="Layer_7">
</g>
<g id="Layer_8">
</g>
<g id="Layer_9">
</g>
<g id="Layer_10">
</g>
<g id="Layer_11">
</g>
<g id="Layer_12">
</g>
<g id="Layer_13">
</g>
<g id="Layer_14">
</g>
<g id="Layer_15">
</g>
<g id="Layer_16">
</g>
<g id="Layer_17">
</g>
<g id="Layer_18">
</g>
<g id="Layer_19">
</g>
<g id="Layer_20">
</g>
<g id="Layer_21">
</g>
<g id="Layer_22">
</g>
<g id="Layer_23">
</g>
<g id="Layer_24">
</g>
<g id="Layer_25">
</g>
<g id="Layer_26">
</g>
</svg>
