<?xml version="1.0" encoding="utf-8"?>
<!-- Generator: Adobe Illustrator 27.9.0, SVG Export Plug-In . SVG Version: 6.00 Build 0)  -->
<svg version="1.1" id="Capa_1" xmlns="http://www.w3.org/2000/svg" xmlns:xlink="http://www.w3.org/1999/xlink" x="0px" y="0px"
	 viewBox="0 0 512 512" style="enable-background:new 0 0 512 512;" xml:space="preserve">
<style type="text/css">
	.st0{fill:#3C3C3C;}
</style>
<g>
	<g>
		<path class="st0" d="M256,0C114.5,0,0,114.5,0,256c0,141.5,114.5,256,256,256c141.5,0,256-114.5,256-256C512,114.5,397.5,0,256,0z
			 M434.2,133.9c-20.5,5.5-43.1,10-67.1,13.3c-4-31-9.7-59.9-16.9-85.7C384.5,78.2,413.3,103.5,434.2,133.9z M209.1,45.1
			c15.2-3.4,31-5.1,46.9-5.1s31.7,1.7,46.9,5.1c10.9,29.6,19.2,66.1,24.5,106.5c-45.4,3.8-95.1,4.1-142.8,0
			C189.8,111.2,198.1,74.7,209.1,45.1z M57.8,342.2C46.1,315.3,40,286.1,40,256s6.1-59.3,17.8-86.2c25,7.3,53,13,82.9,17.2
			c-3.5,44.2-3.7,91.4,0,138.1C110.8,329.2,82.9,334.9,57.8,342.2z M77.8,378.1c20.5-5.5,43.1-10,67.1-13.3c4,31,9.7,59.9,16.9,85.7
			C127.5,433.8,98.7,408.5,77.8,378.1z M144.9,147.2c-24-3.4-46.5-7.8-67.1-13.3c20.9-30.3,49.7-55.7,84-72.3
			C154.6,87.3,148.9,116.2,144.9,147.2z M302.9,466.9c-15.2,3.4-31,5.1-46.9,5.1s-31.7-1.7-46.9-5.1
			c-10.9-29.6-19.2-66.1-24.5-106.5c45.4-3.8,95.1-4,142.8,0C322.2,400.8,313.9,437.3,302.9,466.9z M331.5,320.6
			c-48.3-4.2-100.6-4.3-151,0c-3.2-41.8-3.3-86.2,0-129.2c48.2,4.1,100.5,4.3,151,0C334.7,233.3,334.8,277.7,331.5,320.6z
			 M350.2,450.5c7.2-25.8,12.9-54.7,16.9-85.7c24,3.4,46.5,7.8,67.1,13.3C413.3,408.5,384.5,433.8,350.2,450.5z M371.2,325
			c3.5-44.2,3.7-91.4,0-138.1c29.9-4.1,57.9-9.9,82.9-17.2c11.7,26.8,17.8,56,17.8,86.2s-6.1,59.3-17.8,86.2
			C429.1,334.9,401.2,329.2,371.2,325z"/>
	</g>
</g>
</svg>
