<?xml version="1.0" encoding="utf-8"?>
<!-- Generator: Adobe Illustrator 27.9.0, SVG Export Plug-In . SVG Version: 6.00 Build 0)  -->
<svg version="1.1" id="Layer_1" xmlns="http://www.w3.org/2000/svg" xmlns:xlink="http://www.w3.org/1999/xlink" x="0px" y="0px"
	 viewBox="0 0 512 512" style="enable-background:new 0 0 512 512;" xml:space="preserve">
<style type="text/css">
	.st0{fill:#FFFFFF;}
</style>
<path class="st0" d="M446,95.3H296.6l-19.2-31.1c-12.3-19.9-32.8-31.3-56.1-31.3h-94.2c-36.4,0-66,29.6-66,66v4
	C27,105.4,0,133.9,0,168.7v244.5c0,36.4,29.6,66,66,66h318.9c36.4,0,66-29.6,66-66v-4c34.1-2.5,61.1-31.1,61.1-65.8V161.3
	C512,124.9,482.4,95.3,446,95.3L446,95.3z M384.9,447.2H66c-18.7,0-34-15.3-34-34V168.7c0-18.7,15.3-34,34-34h94.2
	c12.2,0,22.5,5.7,28.9,16.1l23.9,38.7c2.9,4.7,8.1,7.6,13.6,7.6h158.3c18.7,0,34,15.3,34,34v162.3v0c0,0,0,0,0,0v19.8
	C418.9,431.9,403.7,447.2,384.9,447.2L384.9,447.2z M480,343.3c0,17.1-12.7,31.3-29.1,33.6V231.1c0-36.4-29.6-66-66-66H235.5
	L216.3,134c-12.3-19.9-32.8-31.3-56.1-31.3H93.1v-3.8c0-18.7,15.3-34,34-34h94.2c12.2,0,22.5,5.7,28.9,16.1l23.9,38.7
	c2.9,4.7,8.1,7.6,13.6,7.6H446c18.7,0,34,15.3,34,34V343.3z"/>
</svg>
