<?xml version="1.0" encoding="utf-8"?>
<!-- Generator: Adobe Illustrator 27.9.0, SVG Export Plug-In . SVG Version: 6.00 Build 0)  -->
<svg version="1.1" id="Outline" xmlns="http://www.w3.org/2000/svg" xmlns:xlink="http://www.w3.org/1999/xlink" x="0px" y="0px"
	 viewBox="0 0 512 512" style="enable-background:new 0 0 512 512;" xml:space="preserve">
<style type="text/css">
	.st0{fill:#3C3C3C;stroke:#3C3C3C;stroke-width:20;stroke-miterlimit:10;}
</style>
<g>
	<path class="st0" d="M226.8,285.2H51.4c-16.2,0-29.2-13.1-29.2-29.2c0-16.2,13.1-29.2,29.2-29.2h175.3c16.2,0,29.2,13.1,29.2,29.2
		C255.9,272.2,242.8,285.2,226.8,285.2z"/>
	<path class="st0" d="M460.4,115.9h-409c-16.2,0-29.2-13.1-29.2-29.2s13.1-29.2,29.2-29.2h409.1c16.2,0,29.2,13.1,29.2,29.2
		S476.6,115.9,460.4,115.9z"/>
	<path class="st0" d="M460.4,454.5h-409c-16.2,0-29.2-13.1-29.2-29.2c0-16.2,13.1-29.2,29.2-29.2h409.1c16.2,0,29.2,13.1,29.2,29.2
		S476.6,454.5,460.4,454.5z"/>
</g>
</svg>
