<?xml version="1.0" encoding="utf-8"?>
<!-- Generator: Adobe Illustrator 27.9.0, SVG Export Plug-In . SVG Version: 6.00 Build 0)  -->
<svg version="1.1" id="Layer_1" xmlns="http://www.w3.org/2000/svg" xmlns:xlink="http://www.w3.org/1999/xlink" x="0px" y="0px"
	 viewBox="0 0 512 512" style="enable-background:new 0 0 512 512;" xml:space="preserve">
<style type="text/css">
	.st0{fill:#3C3C3C;}
</style>
<path class="st0" d="M31,497c0,8.3,6.7,15,15,15h90c14.4,0,27.3-6.8,35.5-17.4C208.1,506.1,246,512,284.4,512H406
	c24.8,0,45-20.2,45-45c0-5.9-1.1-11.4-3.2-16.6c19.1-5.2,33.2-22.7,33.2-43.4c0-11.5-4.4-22-11.5-30c7.1-8,11.5-18.5,11.5-30
	s-4.4-22-11.5-30c7.1-8,11.5-18.5,11.5-30c0-24.8-20.2-45-45-45h-82.1c1.2-2.8,2.4-5.6,3.6-8.4c9.1-21.1,18.5-42.9,18.5-66.6
	c0-41.5-33.5-76-75-76c-7.1,0-13.3,5-14.7,12.1l-7.7,38.3c-10.1,50.3-21.2,56-62.5,77.2c-10.9,5.6-23.8,12.2-38.8,20.7
	c-6.9-16-22.8-27.3-41.4-27.3H46c-8.3,0-15,6.7-15,15V497z M229.8,245.2c22.4-11.5,38.6-19.8,51.2-33.8c12.9-14.3,20.8-33,27-64.2
	l4.9-24.5c18.8,5.5,33,23.6,33,44.3c0,17.5-8.2,36.4-16.1,54.7c-2.9,6.6-5.8,13.4-8.4,20.3H301c-8.3,0-15,6.7-15,15s6.7,15,15,15
	h135c8.3,0,15,6.7,15,15s-6.7,15-15,15h-30c-8.3,0-15,6.7-15,15s6.7,15,15,15h30c8.3,0,15,6.7,15,15s-6.7,15-15,15h-30
	c-8.3,0-15,6.7-15,15s6.7,15,15,15h30c8.3,0,15,6.7,15,15s-6.7,15-15,15h-30c-8.3,0-15,6.7-15,15s6.7,15,15,15c8.3,0,15,6.7,15,15
	s-6.7,15-15,15H284.4c-35.2,0-69.9-5.3-103.4-15.9V271.9C200.3,260.3,216.5,252,229.8,245.2z M61,242h75c8.3,0,15,6.7,15,15v210
	c0,8.3-6.7,15-15,15H61V242z"/>
<path d="M121,437c0,8.3-6.7,15-15,15s-15-6.7-15-15s6.7-15,15-15S121,428.7,121,437z"/>
<path class="st0" d="M301,15v31c0,8.3,6.7,15,15,15s15-6.7,15-15V15c0-8.3-6.7-15-15-15S301,6.7,301,15z"/>
<path class="st0" d="M395.4,39.8L374.2,61c-5.9,5.9-5.9,15.4,0,21.2c5.9,5.9,15.4,5.9,21.2,0L416.6,61c5.9-5.9,5.9-15.4,0-21.2
	C410.7,33.9,401.2,33.9,395.4,39.8z"/>
<path class="st0" d="M215.4,39.8c-5.9,5.9-5.9,15.4,0,21.2l21.2,21.2c5.9,5.9,15.4,5.9,21.2,0c5.9-5.9,5.9-15.4,0-21.2l-21.2-21.2
	C230.8,33.9,221.2,33.9,215.4,39.8z"/>
</svg>
