<?xml version="1.0" encoding="utf-8"?>
<!-- Generator: Adobe Illustrator 27.9.0, SVG Export Plug-In . SVG Version: 6.00 Build 0)  -->
<svg version="1.1" id="Capa_1" xmlns="http://www.w3.org/2000/svg" xmlns:xlink="http://www.w3.org/1999/xlink" x="0px" y="0px"
	 viewBox="0 0 512 512" style="enable-background:new 0 0 512 512;" xml:space="preserve">
<style type="text/css">
	.st0{fill:#3C3C3C;stroke:#3C3C3C;stroke-width:10;stroke-miterlimit:10;}
</style>
<g>
	<g>
		<g>
			<path class="st0" d="M194.9,58.4h-90.8c-25.2,0-45.7,20.5-45.7,45.7v90.8c0,25.2,20.5,45.7,45.7,45.7h90.8
				c25.2,0,45.7-20.5,45.7-45.7v-90.8C240.6,78.9,220.1,58.4,194.9,58.4z M209.7,194.9c0,8.2-6.7,14.8-14.8,14.8h-90.8
				c-8.2,0-14.8-6.7-14.8-14.8v-90.8c0-8.2,6.7-14.8,14.8-14.8h90.8c8.2,0,14.8,6.7,14.8,14.8V194.9z"/>
		</g>
	</g>
	<g>
		<g>
			<path class="st0" d="M407.3,58.4h-89.5c-25.5,0-46.3,20.8-46.3,46.3v89.5c0,25.5,20.8,46.3,46.3,46.3h89.5
				c25.5,0,46.3-20.8,46.3-46.3v-89.5C453.6,79.2,432.8,58.4,407.3,58.4z M422.7,194.3c0,8.5-6.9,15.4-15.4,15.4h-89.5
				c-8.5,0-15.4-6.9-15.4-15.4v-89.5c0-8.5,6.9-15.4,15.4-15.4h89.5c8.5,0,15.4,6.9,15.4,15.4V194.3z"/>
		</g>
	</g>
	<g>
		<g>
			<path class="st0" d="M194.9,271.4h-90.8c-25.2,0-45.7,20.5-45.7,45.7v90.8c0,25.2,20.5,45.7,45.7,45.7h90.8
				c25.2,0,45.7-20.5,45.7-45.7v-90.8C240.6,291.9,220.1,271.4,194.9,271.4z M209.7,407.9c0,8.2-6.7,14.8-14.8,14.8h-90.8
				c-8.2,0-14.8-6.7-14.8-14.8v-90.8c0-8.2,6.7-14.8,14.8-14.8h90.8c8.2,0,14.8,6.7,14.8,14.8V407.9z"/>
		</g>
	</g>
	<g>
		<g>
			<path class="st0" d="M407.3,271.4h-89.5c-25.5,0-46.3,20.8-46.3,46.3v89.5c0,25.5,20.8,46.3,46.3,46.3h89.5
				c25.5,0,46.3-20.8,46.3-46.3v-89.5C453.6,292.2,432.8,271.4,407.3,271.4z M422.7,407.3c0,8.5-6.9,15.4-15.4,15.4h-89.5
				c-8.5,0-15.4-6.9-15.4-15.4v-89.5c0-8.5,6.9-15.4,15.4-15.4h89.5c8.5,0,15.4,6.9,15.4,15.4V407.3z"/>
		</g>
	</g>
</g>
</svg>
