<svg height="512" viewBox="0 0 64 64" width="512" xmlns="http://www.w3.org/2000/svg"><g id="Layer_20" data-name="Layer 20"><path d="m56.43 15.85a1 1 0 0 0 -1.66 1.15c15.95 24.9-12.89 53.72-37.77 37.77a1 1 0 0 0 -1.1 1.66 29.1 29.1 0 0 0 16.1 4.84c23 .26 37.33-26.17 24.43-45.42z"/><path d="m9.23 47.05c-15.95-24.94 12.89-53.77 37.82-37.82a1 1 0 0 0 1.1-1.66c-26.77-17.13-57.71 13.82-40.58 40.58a1 1 0 0 0 1.66-1.1z"/><path d="m54 8.71-29.91 14.93a1.61 1.61 0 0 0 -.45.45l-14.93 29.91a1 1 0 0 0 1.34 1.34l29.89-15a1 1 0 0 0 .42-.43s13.34-26.65 13.33-26.66l1.6-3.2a1 1 0 0 0 -1.29-1.34zm-25.91 27.2c-5-5.33 2.49-12.82 7.82-7.82 5 5.33-2.49 12.82-7.82 7.82z"/></g></svg>