<?xml version="1.0" encoding="utf-8"?>
<!-- Generator: Adobe Illustrator 27.9.0, SVG Export Plug-In . SVG Version: 6.00 Build 0)  -->
<svg version="1.1" id="Capa_1" xmlns="http://www.w3.org/2000/svg" xmlns:xlink="http://www.w3.org/1999/xlink" x="0px" y="0px"
	 viewBox="0 0 512 512" style="enable-background:new 0 0 512 512;" xml:space="preserve">
<style type="text/css">
	.st0{fill:#3C3C3C;stroke:#3C3C3C;stroke-width:10;stroke-miterlimit:10;}
</style>
<g>
	<g>
		<path class="st0" d="M392.7,191.4h-34.2v-78.1c0-55.4-46-100.4-102.5-100.4S153.4,58,153.4,113.4v78.1h-34.1
			c-31.4,0-57,25.6-57,57v193.7c0,31.4,25.6,57,57,57h273.4c31.4,0,57-25.6,57-57V248.4C449.7,217,424.1,191.4,392.7,191.4z
			 M191.4,113.4c0-34.4,29-62.4,64.6-62.4s64.6,28,64.6,62.4v78.1H191.4L191.4,113.4L191.4,113.4z M411.7,442.1c0,10.5-8.5,19-19,19
			H119.3c-10.5,0-19-8.5-19-19V248.4c0-10.5,8.5-19,19-19h273.4c10.5,0,19,8.5,19,19V442.1z"/>
	</g>
</g>
<g>
	<g>
		<path class="st0" d="M256,284.5c-19.4,0-35.1,15.7-35.1,35.1c0,12.4,6.4,23.3,16.1,29.5v41.7c0,10.5,8.5,19,19,19
			c10.5,0,19-8.5,19-19v-41.6c9.7-6.2,16.2-17.2,16.2-29.6C291.1,300.2,275.4,284.5,256,284.5z"/>
	</g>
</g>
</svg>
