<?xml version="1.0" encoding="utf-8"?>
<!-- Generator: Adobe Illustrator 26.4.1, SVG Export Plug-In . SVG Version: 6.00 Build 0)  -->
<svg version="1.1" id="Capa_1" xmlns="http://www.w3.org/2000/svg" xmlns:xlink="http://www.w3.org/1999/xlink" x="0px" y="0px"
	 viewBox="0 0 512 512" style="enable-background:new 0 0 512 512;" xml:space="preserve">
<style type="text/css">
	.st0{fill:#0C71E8;}
	.st1{fill:#3C3C3C;}
</style>
<g>
	<path class="st0" d="M256,91c-91,0-165,74-165,165s74,165,165,165s165-74,165-165S346.9,91,256,91z M256,391
		c-74.4,0-135-60.5-135-135s60.5-135,135-135s135,60.5,135,135S330.4,391,256,391z"/>
	<path class="st0" d="M320.4,200.4L241,279.8l-49.4-49.4c-5.9-5.9-15.4-5.9-21.2,0s-5.9,15.4,0,21.2l60,60c2.9,2.9,6.8,4.4,10.6,4.4
		s7.7-1.5,10.6-4.4l90-90c5.9-5.9,5.9-15.4,0-21.2C335.7,194.5,326.2,194.5,320.4,200.4L320.4,200.4z"/>
	<path class="st1" d="M490.5,150.9c0,0-52.4-31.4-52.4-31.4l-11.7-48.6c-5.2-21.6-25.1-36-47.2-34.3l-59.6,4.6
		c0,0-34.3-30.3-34.4-30.4c-16.9-14.4-41.4-14.4-58.3,0c-0.1,0.1-34.4,30.4-34.4,30.4l-59.6-4.6c-22-1.7-41.7,12.5-47.1,33.8
		l-16.4,52.1c0,0-47.8,28.4-47.9,28.4c-18.9,11.6-26.5,35-18,55.5l20.4,49.4L3.4,305.2c-8.5,20.5-0.9,43.9,18,55.5
		c0.1,0,52.3,31.2,52.3,31.2l11.8,48.8c4.9,20.4,23,34.4,43.6,34.4c3.2,0-0.4,0.1,62.6-4.7c0,0,35,30.7,35,30.7
		c8.5,7.2,18.8,10.8,29.2,10.8c10.4,0,20.7-3.6,29.2-10.8c0.1,0,35-30.7,35-30.7l59,4.6c22.1,1.7,42-12.7,47.2-34.3l11.7-48.6
		c64-38.3,50.5-30.2,52.4-31.4c18.9-11.6,26.5-35,18-55.5l-20.4-49.4l20.4-49.4C517,185.8,509.4,162.5,490.5,150.9L490.5,150.9z
		 M458.1,261.5l22.8,55.2c2.8,6.8,0.3,14.6-5.9,18.5l-57.5,34.4c-3.5,2.1-5.9,5.4-6.9,9.3l-13.2,54.8c-1.7,7.2-8.3,12-15.7,11.4
		l-65.3-5.1c-4-0.3-8,1-11,3.7l-39.5,34.7c-5.6,4.7-13.7,4.7-19.3,0l-39.5-34.7c-3-2.7-7-4-11-3.7l-65.3,5.1
		c-7.4,0.6-14-4.2-15.7-11.4l-13.3-55c-0.9-3.9-3.4-7.3-6.9-9.4l-57.4-34.2c-6.3-3.9-8.7-11.6-5.9-18.5l22.8-55.2
		c1.5-3.7,1.5-7.8,0-11.4l-22.8-55.2c-2.8-6.8-0.3-14.6,5.9-18.4l52.5-31.2c3.2-1.9,5.5-4.9,6.6-8.4c19.3-61.7,18.3-58.1,18.5-59
		c1.7-7.2,8.3-12,15.7-11.4l66,5.1c4,0.3,8-1,11.1-3.7l38.9-34.3c5.6-4.7,13.7-4.7,19.3,0l38.9,34.3c3,2.7,7,4,11.1,3.7l66-5.1
		c7.4-0.6,14,4.2,15.7,11.4l13.2,54.8c0.9,3.9,3.4,7.3,6.9,9.3l57.5,34.4c6.3,3.9,8.8,11.6,5.9,18.5l-22.8,55.2
		C456.6,253.7,456.6,257.8,458.1,261.5L458.1,261.5z"/>
</g>
</svg>
