<?xml version="1.0" encoding="utf-8"?>
<!-- Generator: Adobe Illustrator 26.4.1, SVG Export Plug-In . SVG Version: 6.00 Build 0)  -->
<svg version="1.1" id="Capa_1" xmlns="http://www.w3.org/2000/svg" xmlns:xlink="http://www.w3.org/1999/xlink" x="0px" y="0px"
	 viewBox="0 0 512 512" style="enable-background:new 0 0 512 512;" xml:space="preserve">
<style type="text/css">
	.st0{fill:#3C3C3C;stroke:#3C3C3C;stroke-width:15;stroke-miterlimit:10;}
</style>
<g>
	<path class="st0" d="M206.8,399.6C97.9,399.6,9.2,312.3,9.2,204.8S97.9,10,206.8,10s197.6,87.4,197.6,194.8
		S315.8,399.6,206.8,399.6L206.8,399.6z M206.8,50.9c-86.4,0-156.7,69-156.7,153.9c0,84.8,70.3,153.9,156.7,153.9
		s156.6-69,156.6-153.9C363.5,120,293.2,50.9,206.8,50.9L206.8,50.9z"/>
	<path class="st0" d="M482.3,501c-5.2,0-10.4-2-14.3-5.9L315.4,344.9c-8.1-7.9-8.1-20.9-0.2-28.9c7.9-8.1,20.9-8.2,28.9-0.2
		L496.7,466c8.1,7.9,8.1,20.9,0.2,28.9C492.9,499,487.6,501,482.3,501z"/>
</g>
</svg>
