<?xml version="1.0" encoding="utf-8"?>
<!-- Generator: Adobe Illustrator 27.9.0, SVG Export Plug-In . SVG Version: 6.00 Build 0)  -->
<svg version="1.1" id="Capa_1" xmlns="http://www.w3.org/2000/svg" xmlns:xlink="http://www.w3.org/1999/xlink" x="0px" y="0px"
	 viewBox="0 0 512 512" style="enable-background:new 0 0 512 512;" xml:space="preserve">
<style type="text/css">
	.st0{fill:#3C3C3C;}
</style>
<g>
	<path class="st0" d="M419.7,191.4V96.7c0-4.7-3.8-8.5-8.5-8.5H256H100.9c-4.7,0-8.5,3.8-8.5,8.5v94.7c0,4.7,3.8,8.5,8.5,8.5h45.2
		c4.7,0,8.5-3.8,8.5-8.5v-32.4c0-4.7,3.8-8.5,8.5-8.5h53.2c4.7,0,8.5,3.8,8.5,8.5v234.1c0,4.7-3.8,8.5-8.5,8.5h-23.3
		c-4.7,0-8.5,3.8-8.5,8.5v45.2c0,4.7,3.8,8.5,8.5,8.5H256h62.9c4.7,0,8.5-3.8,8.5-8.5v-45.2c0-4.7-3.8-8.5-8.5-8.5h-23.3
		c-4.7,0-8.5-3.8-8.5-8.5V158.9c0-4.7,3.8-8.5,8.5-8.5h53.2c4.7,0,8.5,3.8,8.5,8.5v32.4c0,4.7,3.8,8.5,8.5,8.5h45.2
		C415.8,199.9,419.7,196.1,419.7,191.4L419.7,191.4z"/>
</g>
</svg>
