<?xml version="1.0" encoding="utf-8"?>
<!-- Generator: Adobe Illustrator 27.9.0, SVG Export Plug-In . SVG Version: 6.00 Build 0)  -->
<svg version="1.1" id="Layer_1" xmlns="http://www.w3.org/2000/svg" xmlns:xlink="http://www.w3.org/1999/xlink" x="0px" y="0px"
	 viewBox="0 0 512 512" style="enable-background:new 0 0 512 512;" xml:space="preserve">
<style type="text/css">
	.st0{fill:#FFFFFF;stroke:#FFFFFF;stroke-width:20;stroke-miterlimit:10;}
</style>
<path class="st0" d="M249.9,230.4c29.7,0,55.5-10.7,76.5-31.7c21-21,31.7-46.8,31.7-76.5c0-29.7-10.7-55.5-31.7-76.5
	c-21-21-46.8-31.7-76.5-31.7c-29.7,0-55.5,10.7-76.5,31.7s-31.7,46.8-31.7,76.5c0,29.7,10.7,55.5,31.7,76.5
	C194.4,219.7,220.2,230.4,249.9,230.4z M192,64.2c16.1-16.1,35.1-24,57.9-24c22.8,0,41.8,7.8,57.9,24c16.1,16.1,24,35.1,24,57.9
	c0,22.8-7.9,41.8-24,57.9c-16.1,16.1-35.1,24-57.9,24c-22.8,0-41.7-7.9-57.9-24c-16.1-16.1-24-35.1-24-57.9
	C168,99.3,175.9,80.4,192,64.2z"/>
<path class="st0" d="M439.3,375.8c-0.6-8.8-1.8-18.3-3.6-28.4c-1.8-10.2-4.2-19.8-7-28.5c-2.9-9.1-6.9-18-11.7-26.6
	c-5.1-8.9-11-16.7-17.7-23.1c-7-6.7-15.5-12.1-25.4-16c-9.9-3.9-20.8-5.9-32.5-5.9c-4.6,0-9,1.9-17.6,7.5
	c-5.3,3.4-11.4,7.4-18.3,11.8c-5.9,3.8-13.9,7.3-23.7,10.4c-9.6,3.1-19.4,4.7-29,4.7c-9.6,0-19.4-1.6-29-4.7
	c-9.8-3.2-17.8-6.7-23.7-10.4c-6.8-4.4-13-8.3-18.3-11.8c-8.6-5.6-13-7.5-17.6-7.5c-11.7,0-22.6,2-32.4,5.9
	c-9.9,3.9-18.4,9.3-25.4,16c-6.7,6.4-12.6,14.1-17.7,23.1c-4.9,8.6-8.8,17.5-11.7,26.6c-2.8,8.8-5.2,18.4-7,28.5
	c-1.8,10.1-3,19.6-3.6,28.4c-0.6,8.6-0.9,17.5-0.9,26.5c0,23.5,7.5,42.4,22.2,56.4c14.5,13.8,33.7,20.8,57.1,20.8h216.4
	c23.4,0,42.6-7,57.1-20.8c14.7-14,22.2-33,22.2-56.5C440.2,393.3,439.9,384.4,439.3,375.8z M399.9,439.7
	c-9.6,9.1-22.3,13.6-38.9,13.6H144.6c-16.6,0-29.4-4.4-38.9-13.6c-9.4-9-14-21.2-14-37.4c0-8.4,0.3-16.7,0.8-24.7
	c0.5-7.8,1.6-16.4,3.3-25.6c1.6-9,3.7-17.5,6.1-25.2c2.4-7.4,5.6-14.6,9.6-21.6c3.8-6.7,8.2-12.4,13-17c4.5-4.3,10.2-7.9,16.9-10.5
	c6.2-2.5,13.2-3.8,20.7-4c0.9,0.5,2.6,1.4,5.2,3.2c5.4,3.5,11.7,7.6,18.5,12c7.8,5,17.8,9.4,29.8,13.3c12.2,4,24.7,6,37.1,6
	c12.4,0,24.9-2,37.1-6c12-3.9,22-8.3,29.8-13.3c7.1-4.5,13.1-8.4,18.5-12c2.7-1.7,4.3-2.7,5.2-3.2c7.6,0.2,14.5,1.5,20.7,4
	c6.7,2.7,12.4,6.2,16.9,10.5c4.8,4.6,9.2,10.4,13,17c4,7,7.2,14.3,9.6,21.6c2.5,7.7,4.5,16.1,6.1,25.2c1.6,9.2,2.7,17.8,3.3,25.6v0
	c0.6,7.9,0.8,16.3,0.8,24.7C413.9,418.5,409.3,430.8,399.9,439.7z"/>
</svg>
