<?xml version="1.0" encoding="utf-8"?>
<!-- Generator: Adobe Illustrator 27.9.0, SVG Export Plug-In . SVG Version: 6.00 Build 0)  -->
<svg version="1.1" id="Capa_1" xmlns="http://www.w3.org/2000/svg" xmlns:xlink="http://www.w3.org/1999/xlink" x="0px" y="0px"
	 viewBox="0 0 512 512" style="enable-background:new 0 0 512 512;" xml:space="preserve">
<style type="text/css">
	.st0{fill:#3C3C3C;}
</style>
<g>
	<path class="st0" d="M256,0C114.4,0,0,115.7,0,256c0,141,115.1,256,256,256c141,0,256-115,256-256C512,115.1,397,0,256,0z
		 M481.5,241h-90.7c-0.9-36-4.8-71.3-11.6-103.8c20.4-4.5,39.7-10.2,57.4-16.9C462.3,154.4,478.5,195.9,481.5,241L481.5,241z
		 M437.2,390.9c-17.8-6.8-37.2-12.5-57.8-17.1c6.7-32.3,10.6-67.3,11.4-102.9h90.7C478.5,315.8,462.5,357,437.2,390.9L437.2,390.9z
		 M271,481.5v-90.3c24.7,0.6,48.9,2.8,71.8,6.3c-8.8,31.2-20.5,58.2-34.4,78.3C296.3,478.7,283.8,480.6,271,481.5z M203.6,475.9
		c-14-20.2-25.7-47.1-34.4-78.3c22.9-3.6,47.1-5.7,71.8-6.3v90.3C228.2,480.6,215.7,478.7,203.6,475.9z M30.5,271h90.7
		c0.9,35.6,4.7,70.6,11.4,102.9c-20.6,4.6-40,10.3-57.8,17.1C49.5,357,33.5,315.8,30.5,271z M75.4,120.3c17.7,6.7,37,12.4,57.4,16.9
		C126,169.7,122.1,205,121.2,241H30.5C33.5,195.9,49.7,154.4,75.4,120.3z M241,30.5v89.3c-24.6-0.6-48.7-2.7-71.6-6.3
		c8.7-30.8,20.3-57.4,34.2-77.4C215.7,33.3,228.2,31.4,241,30.5L241,30.5z M308.4,36.1c13.8,20,25.4,46.6,34.2,77.4
		c-22.9,3.5-46.9,5.7-71.6,6.3V30.5C283.8,31.4,296.3,33.3,308.4,36.1z M241,241h-89.8c0.9-34.5,4.7-67.9,11.1-98.2
		c25.2,4,51.6,6.4,78.7,7.1L241,241L241,241z M271,149.8c27.1-0.6,53.6-3,78.7-7.1c6.4,30.4,10.2,63.7,11.1,98.2H271L271,149.8z
		 M372.1,108c-5.8-20.9-12.8-40-20.8-56.9c24,11.2,45.6,26.5,64.2,44.9C401.9,100.7,387.4,104.7,372.1,108z M139.9,108
		c-15.2-3.3-29.8-7.4-43.3-12c18.5-18.5,40.2-33.7,64.2-44.9C152.7,68,145.7,87.1,139.9,108L139.9,108z M151.2,271H241v90.2
		c-27.2,0.6-53.7,3.1-78.9,7.1C155.8,338.2,152.1,305.1,151.2,271z M271,361.2V271h89.8c-0.9,34.2-4.6,67.2-10.9,97.3
		C324.7,364.2,298.2,361.8,271,361.2z M95.8,415.2c13.7-4.7,28.4-8.8,43.8-12.2c5.9,21.3,13,40.7,21.1,57.9
		C136.4,449.5,114.4,434,95.8,415.2L95.8,415.2z M351.3,460.9c8.1-17.1,15.2-36.6,21.1-57.9c15.4,3.4,30.1,7.5,43.8,12.2
		C397.6,434,375.6,449.5,351.3,460.9L351.3,460.9z"/>
</g>
</svg>
